ffmpeg version 3.4.8-0ubuntu0.2 Copyright (c) 2000-2020 the FFmpeg developers
  built with gcc 7 (Ubuntu 7.5.0-3ubuntu1~18.04)
  configuration: --prefix=/usr --extra-version=0ubuntu0.2 --toolchain=hardened --libdir=/usr/lib/x86_64-linux-gnu --incdir=/usr/include/x86_64-linux-gnu --enable-gpl --disable-stripping --enable-avresample --enable-avisynth --enable-gnutls --enable-ladspa --enable-libass --enable-libbluray --enable-libbs2b --enable-libcaca --enable-libcdio --enable-libflite --enable-libfontconfig --enable-libfreetype --enable-libfribidi --enable-libgme --enable-libgsm --enable-libmp3lame --enable-libmysofa --enable-libopenjpeg --enable-libopenmpt --enable-libopus --enable-libpulse --enable-librubberband --enable-librsvg --enable-libshine --enable-libsnappy --enable-libsoxr --enable-libspeex --enable-libssh --enable-libtheora --enable-libtwolame --enable-libvorbis --enable-libvpx --enable-libwavpack --enable-libwebp --enable-libx265 --enable-libxml2 --enable-libxvid --enable-libzmq --enable-libzvbi --enable-omx --enable-openal --enable-opengl --enable-sdl2 --enable-libdc1394 --enable-libdrm --enable-libiec61883 --enable-chromaprint --enable-frei0r --enable-libopencv --enable-libx264 --enable-shared
  libavutil      55. 78.100 / 55. 78.100
  libavcodec     57.107.100 / 57.107.100
  libavformat    57. 83.100 / 57. 83.100
  libavdevice    57. 10.100 / 57. 10.100
  libavfilter     6.107.100 /  6.107.100
  libavresample   3.  7.  0 /  3.  7.  0
  libswscale      4.  8.100 /  4.  8.100
  libswresample   2.  9.100 /  2.  9.100
  libpostproc    54.  7.100 / 54.  7.100
[rawvideo @ 0x558eeae76a20] Estimating duration from bitrate, this may be inaccurate
Input #0, rawvideo, from '../../SVC-Encoder-20220109T061506Z-001/SVC-Encoder/Dataset/RollerCoaster/ERP_8x8/tile_yuv/Tile_48_480x240.yuv':
  Duration: 00:00:10.00, start: 0.000000, bitrate: 41472 kb/s
    Stream #0:0: Video: rawvideo (I420 / 0x30323449), yuv420p, 480x240, 41472 kb/s, 30 tbr, 30 tbn, 30 tbc
Stream mapping:
  Stream #0:0 -> #0:0 (rawvideo (native) -> h264 (libx264))
Press [q] to stop, [?] for help
[libx264 @ 0x558eeae83c60] using cpu capabilities: MMX2 SSE2Fast LZCNT SSSE3 SSE4.2 AVX
[libx264 @ 0x558eeae83c60] profile High, level 2.1
Output #0, rawvideo, to 'RollerCoaster_Tile_48_480x240_x264_QP_36.h264':
  Metadata:
    encoder         : Lavf57.83.100
    Stream #0:0: Video: h264 (libx264), yuv420p, 480x240, q=-1--1, 30 fps, 30 tbn, 30 tbc
    Metadata:
      encoder         : Lavc57.107.100 libx264
    Side data:
      cpb: bitrate max/min/avg: 0/0/0 buffer size: 0 vbv_delay: -1
frame=  294 fps=0.0 q=42.0 PSNR=Y:nan U:nan V:nan *:nan size=      35kB time=00:00:08.36 bitrate=  33.9kbits/s speed=16.7x    frame=  300 fps=0.0 q=42.0 LPSNR=Y:inf U:inf V:inf *:inf size=      38kB time=00:00:09.93 bitrate=  31.6kbits/s speed=17.6x    
video:38kB audio:0kB subtitle:0kB other streams:0kB global headers:0kB muxing overhead: 0.000000%
[libx264 @ 0x558eeae83c60] frame I:2     Avg QP:32.62  size:  5032  PSNR Mean Y:38.12 U:42.95 V:41.68 Avg:39.12 Global:39.07
[libx264 @ 0x558eeae83c60] frame P:76    Avg QP:34.11  size:   223  PSNR Mean Y:37.05 U:42.89 V:41.97 Avg:38.22 Global:38.21
[libx264 @ 0x558eeae83c60] frame B:222   Avg QP:41.39  size:    55  PSNR Mean Y:36.80 U:42.87 V:41.94 Avg:37.99 Global:37.99
[libx264 @ 0x558eeae83c60] consecutive B-frames:  0.7%  1.3%  2.0% 96.0%
[libx264 @ 0x558eeae83c60] mb I  I16..4: 31.3% 59.6%  9.1%
[libx264 @ 0x558eeae83c60] mb P  I16..4:  0.2%  0.1%  0.0%  P16..4: 24.8%  0.9%  0.1%  0.0%  0.0%    skip:73.9%
[libx264 @ 0x558eeae83c60] mb B  I16..4:  0.0%  0.0%  0.0%  B16..8:  8.3%  0.0%  0.0%  direct: 0.0%  skip:91.7%  L0:39.9% L1:60.0% BI: 0.1%
[libx264 @ 0x558eeae83c60] 8x8 transform intra:56.8% inter:93.4%
[libx264 @ 0x558eeae83c60] coded y,uvDC,uvAC intra: 51.9% 64.3% 19.7% inter: 0.4% 0.6% 0.0%
[libx264 @ 0x558eeae83c60] i16 v,h,dc,p: 15% 47% 10% 29%
[libx264 @ 0x558eeae83c60] i8 v,h,dc,ddl,ddr,vr,hd,vl,hu:  7% 38% 17%  4%  3%  3%  7%  2% 19%
[libx264 @ 0x558eeae83c60] i4 v,h,dc,ddl,ddr,vr,hd,vl,hu: 10% 31% 21%  6%  5%  5%  8%  6%  8%
[libx264 @ 0x558eeae83c60] i8c dc,h,v,p: 44% 41%  5% 10%
[libx264 @ 0x558eeae83c60] Weighted P-Frames: Y:0.0% UV:0.0%
[libx264 @ 0x558eeae83c60] ref P L0: 59.2% 21.2% 14.3%  5.3%
[libx264 @ 0x558eeae83c60] ref B L0: 68.5% 26.8%  4.7%
[libx264 @ 0x558eeae83c60] ref B L1: 74.9% 25.1%
[libx264 @ 0x558eeae83c60] PSNR Mean Y:36.872 U:42.875 V:41.950 Avg:38.059 Global:38.048 kb/s:31.36
